<svg width="17" height="16" viewBox="0 0 17 16" fill="none" xmlns="http://www.w3.org/2000/svg">
<path d="M8.83373 1.19922C11.1778 1.19922 13.0781 3.10035 13.0781 5.44552C13.0781 6.85273 12.3939 8.10006 11.3402 8.87271C13.4542 9.64944 15.1191 11.3582 15.8387 13.5019C15.8609 13.5682 15.8822 13.6348 15.9027 13.7018L15.9326 13.8027C16.0726 14.2871 15.7936 14.7933 15.3094 14.9334C15.227 14.9573 15.1416 14.9694 15.0559 14.9694H2.48027C1.98041 14.9694 1.5752 14.564 1.5752 14.0639C1.5752 13.9933 1.58343 13.9231 1.5997 13.8546L1.61043 13.8137C1.63985 13.7113 1.6714 13.6098 1.70502 13.5093C2.43253 11.3346 4.13251 9.60648 6.28766 8.84311C5.25644 8.06866 4.58933 6.83503 4.58933 5.44552C4.58933 3.10035 6.48961 1.19922 8.83373 1.19922ZM8.77309 9.75248C6.25572 9.75248 4.03194 11.2897 3.10538 13.5672L3.07833 13.6348H14.4679L14.4674 13.6337C13.5667 11.3436 11.3613 9.78521 8.85242 9.75299L8.77309 9.75248ZM8.83373 2.53377C7.22633 2.53377 5.92328 3.8374 5.92328 5.44552C5.92328 7.05363 7.22633 8.35727 8.83373 8.35727C10.4411 8.35727 11.7442 7.05363 11.7442 5.44552C11.7442 3.8374 10.4411 2.53377 8.83373 2.53377Z" fill="#56606D"/>
</svg>
