<svg width="16" height="16" viewBox="0 0 16 16" fill="none" xmlns="http://www.w3.org/2000/svg">
<path d="M7.9998 0.800781C11.9763 0.800781 15.1998 4.02433 15.1998 8.00078C15.1998 11.9772 11.9763 15.2008 7.9998 15.2008C4.02335 15.2008 0.799805 11.9772 0.799805 8.00078C0.799805 4.02433 4.02335 0.800781 7.9998 0.800781ZM7.9998 2.12078C4.75237 2.12078 2.1198 4.75335 2.1198 8.00078C2.1198 11.2482 4.75237 13.8808 7.9998 13.8808C11.2472 13.8808 13.8798 11.2482 13.8798 8.00078C13.8798 4.75335 11.2472 2.12078 7.9998 2.12078ZM8.59945 5.5199L8.59972 5.53052L8.59968 7.37918H10.3939C10.7621 7.37918 11.064 7.67118 11.0762 8.03918C11.088 8.39176 10.8117 8.6871 10.4591 8.69883L10.4485 8.69909L8.59968 8.69918L8.5998 10.5376C8.5998 10.9021 8.30431 11.1976 7.9398 11.1976C7.58419 11.1976 7.29426 10.9163 7.28033 10.5641L7.2798 10.5376L7.27968 8.69918H5.4414C5.0769 8.69918 4.7814 8.40369 4.7814 8.03918C4.7814 7.68356 5.06266 7.39364 5.41486 7.37971L5.4414 7.37918H7.27968L7.2798 5.58507C7.2798 5.21686 7.5718 4.91499 7.9398 4.90274C8.29239 4.89101 8.58772 5.16732 8.59945 5.5199Z" fill="#56606D"/>
</svg>
