<svg width="8" height="8" viewBox="0 0 8 8" fill="none" xmlns="http://www.w3.org/2000/svg">
<circle cx="4" cy="4" r="4" fill="#FF458B"/>
<path d="M2.84978 3.25556L2.85504 3.25009L3.84911 2.25602C3.92096 2.18417 4.03637 2.18241 4.11035 2.25076L4.11581 2.25602L5.10989 3.25009C5.18353 3.32374 5.18353 3.44314 5.10989 3.51679C5.03803 3.58864 4.92263 3.59039 4.84865 3.52205L4.84318 3.51679L4.17104 2.8447L4.17105 5.61219C4.17105 5.71635 4.08662 5.80078 3.98246 5.80078C3.88085 5.80078 3.79801 5.72042 3.79403 5.61978L3.79388 5.61219L3.79386 2.8447L3.12174 3.51679C3.04989 3.58864 2.93449 3.59039 2.86051 3.52205L2.85504 3.51679C2.78319 3.44494 2.78144 3.32953 2.84978 3.25556Z" fill="white"/>
</svg>
