<svg width="245" height="308" viewBox="0 0 245 308" fill="none" xmlns="http://www.w3.org/2000/svg">
<g opacity="0.583374">
<g opacity="0.583374">
<g opacity="0.583374">
<path d="M-34.9628 210.579L-34.6537 259.567L226.793 108.792L50.7519 121.669L-45.2206 71.4915M-34.9628 210.579L-45.2206 71.4915M-34.9628 210.579L88.2108 11.2746L218.835 293.344L-34.9628 210.579ZM-34.9628 210.579L16.4295 227.88L159.201 48.0097L109.276 257.616L-45.2206 71.4915M-45.2206 71.4915L131.59 163.934" stroke="#CCD4DF" stroke-width="4" stroke-linecap="round" stroke-linejoin="round"/>
</g>
</g>
</g>
<ellipse cx="129.414" cy="163.665" rx="9.10344" ry="9.13531" transform="rotate(-180 129.414 163.665)" fill="#376FFF"/>
<ellipse cx="15.7583" cy="228.443" rx="16.2759" ry="16.3328" transform="rotate(-180 15.7583 228.443)" fill="#00E075"/>
<ellipse cx="52.1729" cy="121.035" rx="9.10345" ry="9.13532" transform="rotate(-180 52.1729 121.035)" fill="#00E075"/>
<ellipse cx="110.104" cy="256.126" rx="9.10345" ry="9.13531" transform="rotate(-180 110.104 256.126)" fill="#FF598B"/>
<ellipse cx="87.6895" cy="9.13618" rx="9.10345" ry="9.1353" transform="rotate(-180 87.6895 9.13618)" fill="#FF598B"/>
<ellipse cx="50.5174" cy="185.259" rx="5.79311" ry="5.81338" transform="rotate(-180 50.5174 185.259)" fill="#FFC700"/>
<ellipse cx="157.552" cy="49.058" rx="9.10345" ry="9.13532" transform="rotate(-180 157.552 49.058)" fill="#FFC700"/>
<ellipse cx="228.724" cy="111.068" rx="16.2759" ry="16.3329" transform="rotate(-180 228.724 111.068)" fill="#00E075"/>
</svg>
