<svg viewBox="0 0 17 16" xmlns="http://www.w3.org/2000/svg">
<path d="M7.18239 1.63395C7.33338 1.6622 7.46758 1.7091 7.60329 1.78107L7.64637 1.80457C7.76527 1.87144 7.88408 1.9565 8.15892 2.18137L10.0526 3.73074H12.8739C13.988 3.73074 14.3919 3.84673 14.7992 4.06454C15.2065 4.28236 15.5261 4.60199 15.7439 5.00926L15.7673 5.05371C15.97 5.44685 16.0777 5.86101 16.0777 6.93454V11.1035C16.0777 12.4297 15.9396 12.9106 15.6803 13.3955C15.421 13.8803 15.0405 14.2608 14.5557 14.5201L14.5072 14.5457L14.4593 14.57C14.0116 14.7931 13.5198 14.9133 12.3282 14.9175H5.49178C4.16555 14.9175 3.68463 14.7794 3.19978 14.5201C2.71493 14.2608 2.33442 13.8803 2.07512 13.3955L2.0496 13.347C1.81096 12.8857 1.68222 12.4025 1.67773 11.1691V4.36414C1.67773 3.69177 1.78609 3.24634 1.99025 2.86039C2.19441 2.47444 2.49438 2.17049 2.8776 1.96125C3.26083 1.75202 3.70479 1.6378 4.3771 1.62893L6.57968 1.60005L6.69192 1.59961C6.94608 1.59996 7.059 1.61087 7.18239 1.63395ZM7.96571 6.2924C7.69883 6.49422 7.37593 6.60745 7.04222 6.61691L6.99665 6.61756H3.91681C3.5849 6.61756 3.26992 6.54512 2.98679 6.41519V11.1644L2.98813 11.3254L2.98973 11.4323C3.00386 12.194 3.07061 12.481 3.2295 12.7781C3.36679 13.0348 3.56043 13.2285 3.81715 13.3658L3.85442 13.3852L3.89435 13.4049C4.18169 13.5425 4.50163 13.5992 5.27797 13.6074L5.49178 13.6084L12.3733 13.6082C13.2995 13.6036 13.6153 13.5385 13.9383 13.3658C14.195 13.2285 14.3887 13.0348 14.526 12.7781L14.5454 12.7408L14.5651 12.7009C14.7027 12.4136 14.7594 12.0936 14.7676 11.3173L14.7686 11.1035V6.93454C14.7686 6.11648 14.7218 5.8739 14.5896 5.62662C14.4937 5.44748 14.361 5.31472 14.1818 5.21892L14.1509 5.20283C13.9185 5.08546 13.669 5.04174 12.9243 5.03989L9.62201 5.03977L7.96571 6.2924ZM6.63319 2.90868L6.51565 2.90992L4.39437 2.9379L4.2992 2.94003C3.91572 2.95238 3.69183 3.0082 3.50493 3.11024C3.34717 3.19638 3.23146 3.31362 3.14741 3.47251C3.04565 3.66489 2.99267 3.89529 2.98728 4.2946C2.99034 4.31588 2.99225 4.33728 2.99311 4.35896L2.99363 4.38528C2.99363 4.88534 3.39121 5.29253 3.88751 5.30801L3.91681 5.30847H6.99665C7.05333 5.30847 7.10866 5.29228 7.15622 5.26206L7.17611 5.24825L8.56034 4.20136L7.25963 3.13724C7.10214 3.00951 7.0462 2.9691 7.00184 2.94409L6.98996 2.9376C6.97116 2.92763 6.9626 2.92463 6.94168 2.92072L6.91408 2.91632L6.89523 2.91416C6.84818 2.90952 6.77741 2.90766 6.63319 2.90868Z"/>
</svg>
