<svg width="175" height="27" viewBox="0 0 175 27" fill="none" xmlns="http://www.w3.org/2000/svg">
<path d="M11.5751 24.4277C10.5481 24.4277 9.71221 23.6151 9.68447 22.6021L4.36259 19.5521C4.08583 19.7008 3.78728 19.7741 3.49162 19.7783L3.46237 19.7785C2.80948 19.7777 2.17475 19.441 1.82482 18.8393C1.3113 17.9564 1.60232 16.8315 2.47206 16.3011V10.2008C1.60232 9.67045 1.3113 8.54553 1.82482 7.66256C2.16953 7.06986 2.7906 6.73431 3.43315 6.72371L3.46237 6.72346C3.76756 6.72311 4.07671 6.79616 4.3626 6.94986L9.68447 3.89972C9.71196 2.89712 10.5312 2.09072 11.5438 2.07442L11.5751 2.07417C12.6021 2.07417 13.438 2.88681 13.4657 3.89971L18.7875 6.94994C19.0643 6.80109 19.3629 6.72786 19.6586 6.72365L19.6878 6.72346C20.3407 6.7242 20.9755 7.06088 21.3254 7.66256C21.8389 8.54553 21.5479 9.67045 20.6781 10.2008V16.3011C21.5479 16.8315 21.8389 17.9564 21.3254 18.8393C20.9807 19.432 20.3596 19.7676 19.7171 19.7782L19.6878 19.7785C19.3827 19.7788 19.0735 19.7057 18.7876 19.5521L13.4657 22.6022C13.4383 23.6048 12.6191 24.4112 11.6064 24.4275L11.5751 24.4277ZM11.5751 4.84586L11.5996 4.84553C11.6016 4.84548 11.6037 4.84542 11.6057 4.84535L11.5996 4.84553C11.6078 4.84531 11.6159 4.84499 11.6241 4.84455L11.6057 4.84535C11.6147 4.84505 11.6236 4.84463 11.6324 4.84407L11.6241 4.84455C11.6324 4.84411 11.6406 4.84356 11.6489 4.84289L11.6324 4.84407C11.6406 4.84356 11.6487 4.84295 11.6567 4.84223L11.6489 4.84289C11.6562 4.8423 11.6635 4.84163 11.6708 4.84086L11.6567 4.84223C11.6656 4.84144 11.6744 4.84052 11.6832 4.83948L11.6708 4.84086C11.679 4.84 11.6872 4.83903 11.6953 4.83795L11.6832 4.83948C11.6907 4.83859 11.6982 4.83761 11.7056 4.83654L11.6953 4.83795C11.7046 4.83673 11.7137 4.83537 11.7229 4.83387L11.7056 4.83654C11.7131 4.83546 11.7206 4.83429 11.728 4.83302L11.7229 4.83387C11.7307 4.83259 11.7384 4.83122 11.7461 4.82975L11.728 4.83302C11.7362 4.83163 11.7444 4.83013 11.7525 4.82852L11.7461 4.82975C11.7561 4.82785 11.766 4.82579 11.7758 4.82357L11.7525 4.82852C11.7712 4.82481 11.7897 4.82052 11.808 4.81567C11.8126 4.81447 11.8172 4.81321 11.8218 4.81192L11.808 4.81567C11.8156 4.81367 11.8231 4.81157 11.8305 4.80939L11.8218 4.81192C11.8285 4.81003 11.8352 4.80807 11.8418 4.80603L11.8305 4.80939C12.2035 4.70008 12.4757 4.35748 12.4757 3.95176C12.4757 3.45797 12.0725 3.05767 11.5751 3.05767C11.0777 3.05767 10.6745 3.45797 10.6745 3.95176C10.6745 4.35306 10.9408 4.69261 11.3075 4.80573C11.3121 4.80717 11.3167 4.80855 11.3214 4.8099L11.3075 4.80573C11.3144 4.80785 11.3213 4.80989 11.3282 4.81184L11.3214 4.8099C11.3287 4.81204 11.3361 4.81409 11.3436 4.81605L11.3282 4.81184C11.3362 4.81409 11.3442 4.81624 11.3523 4.81828L11.3436 4.81605C11.3613 4.8207 11.3791 4.82482 11.3972 4.8284C11.4 4.82897 11.4029 4.82953 11.4058 4.83007L11.3972 4.8284C11.4055 4.83007 11.414 4.83162 11.4224 4.83305L11.4058 4.83007C11.4127 4.83138 11.4196 4.83261 11.4266 4.83376L11.4224 4.83305C11.43 4.83433 11.4375 4.83551 11.4451 4.8366L11.4266 4.83376C11.4359 4.83529 11.4452 4.83668 11.4546 4.83792L11.4451 4.8366C11.4524 4.83764 11.4596 4.8386 11.4669 4.83946L11.4546 4.83792C11.4629 4.83902 11.4712 4.84 11.4795 4.84087L11.4669 4.83946C11.4758 4.84051 11.4846 4.84143 11.4935 4.84223L11.4795 4.84087C11.4867 4.84163 11.494 4.84231 11.5013 4.8429L11.4935 4.84223C11.5016 4.84295 11.5097 4.84356 11.5178 4.84407L11.5013 4.8429C11.5096 4.84356 11.5178 4.84411 11.5261 4.84455L11.5178 4.84407C11.5266 4.84462 11.5355 4.84505 11.5444 4.84534L11.5261 4.84455C11.5423 4.84542 11.5587 4.84586 11.5751 4.84586ZM14.5029 10.9821L17.8533 9.06177C17.851 9.05242 17.8486 9.04306 17.8464 9.03369C17.8457 9.03082 17.845 9.02789 17.8443 9.02495C17.8428 9.0185 17.8414 9.0121 17.84 9.0057C17.8389 9.00104 17.8379 8.99632 17.8369 8.99159C17.8357 8.98609 17.8345 8.9806 17.8334 8.9751C17.8322 8.96928 17.8311 8.96348 17.8299 8.95768C17.8267 8.94103 17.8237 8.92433 17.8209 8.90761C17.8202 8.90338 17.8195 8.89911 17.8188 8.89484C17.8123 8.854 17.8072 8.81309 17.8035 8.77217C17.8031 8.76756 17.8027 8.76296 17.8023 8.75837C17.8008 8.74106 17.7996 8.72373 17.7986 8.70641C17.7986 8.70493 17.7985 8.70345 17.7984 8.70197L17.7986 8.70641C17.7982 8.69747 17.7977 8.68853 17.7973 8.6796C17.7971 8.67421 17.7969 8.6688 17.7968 8.66338C17.7966 8.65741 17.7964 8.65149 17.7963 8.64557C17.7962 8.64105 17.7961 8.63651 17.796 8.63196C17.7959 8.62746 17.7959 8.62297 17.7958 8.61848C17.7958 8.61437 17.7958 8.61025 17.7958 8.60614L17.7958 8.61848C17.795 8.51845 17.8023 8.4188 17.8173 8.32049C17.8198 8.30415 17.8225 8.28783 17.8255 8.27156C17.8267 8.26445 17.8281 8.25738 17.8294 8.25031C17.8323 8.2353 17.8354 8.22031 17.8386 8.20536C17.8398 8.19998 17.841 8.19459 17.8422 8.1892C17.8431 8.18532 17.844 8.18146 17.8449 8.1776C17.8457 8.17399 17.8466 8.17035 17.8475 8.16672C17.8491 8.15979 17.8508 8.15292 17.8525 8.14606C17.8577 8.12557 17.8632 8.10515 17.8691 8.08482C17.8733 8.07024 17.8777 8.0557 17.8822 8.04121C17.8838 8.03629 17.8853 8.0314 17.8869 8.02652C17.8882 8.02252 17.8895 8.0185 17.8908 8.01449C17.8924 8.00983 17.8939 8.00517 17.8955 8.00052C17.8977 7.99418 17.8999 7.98788 17.9021 7.9816C17.9032 7.97851 17.9042 7.97543 17.9053 7.97234C17.9075 7.96619 17.9098 7.96007 17.912 7.95395C17.9125 7.95267 17.913 7.95135 17.9135 7.95002C17.9164 7.94211 17.9194 7.93429 17.9224 7.92648C17.9295 7.90813 17.9369 7.88988 17.9446 7.87175C17.9508 7.85727 17.9571 7.84286 17.9636 7.82853C17.9658 7.82368 17.968 7.81882 17.9703 7.81396C17.9717 7.81084 17.9732 7.80775 17.9746 7.80467C17.9777 7.79812 17.9808 7.79157 17.984 7.78504C17.9862 7.78049 17.9884 7.77597 17.9907 7.77146C17.9927 7.76735 17.9947 7.76324 17.9968 7.75913C17.9995 7.75376 18.0023 7.74841 18.005 7.74308C18.0067 7.73979 18.0084 7.73646 18.0102 7.73312C18.0131 7.72759 18.016 7.72213 18.0189 7.71668C18.0206 7.71362 18.0222 7.71055 18.0239 7.70749C18.0321 7.69237 18.0405 7.67735 18.0492 7.66244L13.2133 4.89071C13.2124 4.89235 13.2114 4.89399 13.2105 4.89563C13.2015 4.91085 13.1924 4.92591 13.1831 4.94083C13.1815 4.94337 13.1799 4.94591 13.1783 4.94844C13.1747 4.95405 13.1711 4.95967 13.1675 4.96526C13.1652 4.9689 13.1628 4.97249 13.1605 4.97606C13.1575 4.98053 13.1546 4.98503 13.1516 4.98952C13.1488 4.99359 13.1461 4.99763 13.1434 5.00165C13.1416 5.00428 13.1398 5.00693 13.138 5.00956C13.1087 5.05214 13.0776 5.09344 13.045 5.13339C13.0355 5.14505 13.0258 5.15661 13.016 5.16805C13.0069 5.17868 12.9977 5.18921 12.9883 5.19963C12.9839 5.20458 12.9794 5.2095 12.9749 5.2144C12.9725 5.21712 12.9699 5.21986 12.9674 5.22258C12.9648 5.22539 12.9622 5.22817 12.9596 5.23095C12.9488 5.24246 12.9378 5.25386 12.9268 5.26511C12.8919 5.30045 12.8556 5.33446 12.8181 5.36701L12.8147 5.36991C12.8026 5.38034 12.7904 5.39063 12.778 5.40076C12.776 5.4024 12.774 5.40401 12.772 5.40562C12.7674 5.40936 12.7628 5.41312 12.7581 5.41685C12.7538 5.42021 12.7496 5.42355 12.7454 5.42687C12.7431 5.42868 12.7407 5.4305 12.7384 5.4323C12.7231 5.44415 12.7077 5.45575 12.6921 5.46712C12.6911 5.46782 12.6902 5.46848 12.6893 5.46914C12.6846 5.47256 12.6798 5.47598 12.675 5.47939C12.6636 5.4875 12.6521 5.49547 12.6405 5.50332L12.6357 5.50658C12.6033 5.52845 12.5701 5.54933 12.5362 5.5692C12.5329 5.57114 12.5296 5.57306 12.5263 5.57498C12.5125 5.58294 12.4987 5.59074 12.4847 5.59838C12.479 5.60145 12.4734 5.60448 12.4678 5.60749C12.4644 5.60926 12.4611 5.61102 12.4578 5.61278C12.4539 5.6148 12.4501 5.61681 12.4462 5.61881C12.4396 5.62222 12.4329 5.62559 12.4263 5.62892C12.4236 5.63026 12.4209 5.63161 12.4182 5.63295C12.4029 5.64052 12.3875 5.64788 12.3721 5.65503C12.3685 5.65668 12.3649 5.65832 12.3613 5.65995C12.3454 5.66717 12.3294 5.67416 12.3134 5.68094C12.2975 5.68762 12.2815 5.69409 12.2655 5.70035C12.2507 5.70609 12.2359 5.71166 12.2209 5.71704C12.2174 5.71833 12.2138 5.71961 12.2102 5.72087C12.2033 5.72332 12.1963 5.72574 12.1894 5.72812C12.1876 5.72871 12.1859 5.72928 12.1842 5.72985C12.1766 5.73244 12.1689 5.73499 12.1611 5.73749C12.1582 5.73843 12.1553 5.73936 12.1524 5.74028C12.1446 5.74275 12.1368 5.74518 12.129 5.74756C12.1272 5.7481 12.1254 5.74863 12.1237 5.74916C12.1172 5.75111 12.1107 5.75303 12.1042 5.75491C12.0986 5.75652 12.093 5.7581 12.0874 5.75966C12.086 5.76006 12.0846 5.76044 12.0832 5.76083L12.0833 9.37677C13.118 9.50375 14.0067 10.1158 14.5029 10.9821ZM8.81961 11.0583C9.28258 10.1952 10.1198 9.58377 11.0926 9.40572L11.0925 5.76769C11.0817 5.76485 11.0708 5.76191 11.06 5.75887C11.0552 5.75753 11.0504 5.75617 11.0457 5.7548C11.0092 5.74426 10.9731 5.73263 10.9375 5.71998C10.9343 5.71886 10.9312 5.71773 10.928 5.71659C10.921 5.71407 10.9141 5.71152 10.9072 5.70893C10.9048 5.70801 10.9023 5.70709 10.8999 5.70616C10.8933 5.70365 10.8867 5.70112 10.8801 5.69855C10.8768 5.69724 10.8734 5.69591 10.8701 5.69457C10.8626 5.69158 10.8551 5.68855 10.8477 5.68547C10.8456 5.68461 10.8435 5.68374 10.8414 5.68286C10.8248 5.67592 10.8084 5.66877 10.7921 5.66139C10.7876 5.65937 10.7832 5.65735 10.7788 5.65531C10.7656 5.64926 10.7526 5.64305 10.7396 5.6367C10.7316 5.63275 10.7235 5.62875 10.7156 5.6247C10.7108 5.6223 10.706 5.61985 10.7013 5.61739C10.6993 5.61635 10.6973 5.61532 10.6953 5.61429C10.6878 5.61037 10.6803 5.60639 10.6729 5.60235C10.6702 5.60091 10.6675 5.59945 10.6648 5.59798C10.6602 5.59549 10.6557 5.59298 10.6512 5.59045C10.6367 5.58241 10.6224 5.5742 10.6082 5.56581C10.6051 5.56398 10.6021 5.56216 10.599 5.56033C10.5932 5.5568 10.5873 5.55323 10.5814 5.54963C10.5777 5.54738 10.5741 5.54512 10.5704 5.54285C10.5668 5.5406 10.5632 5.53831 10.5596 5.53602C10.5554 5.53336 10.5512 5.53071 10.5471 5.52804C10.5338 5.51948 10.5206 5.51073 10.5075 5.50183C10.5029 5.49871 10.4983 5.49556 10.4937 5.4924C10.4704 5.47619 10.4474 5.45948 10.4248 5.44227C10.4204 5.43896 10.4161 5.4356 10.4117 5.43223L10.4082 5.4295C10.3899 5.4152 10.3718 5.40058 10.354 5.38564C10.3496 5.38194 10.3452 5.37824 10.3409 5.37452C10.3364 5.37064 10.3319 5.36675 10.3274 5.36284C10.3243 5.36016 10.3212 5.35746 10.3181 5.35474C10.3156 5.35252 10.3132 5.35033 10.3107 5.34813C10.275 5.31628 10.2406 5.28311 10.2075 5.24868C10.2044 5.24554 10.2014 5.24236 10.1984 5.23917C10.1847 5.2248 10.1713 5.21022 10.1581 5.19543L10.1573 5.19449C10.1341 5.16843 10.1116 5.14172 10.0899 5.11441C10.0866 5.11031 10.0834 5.10619 10.0802 5.10206C10.0772 5.09822 10.0742 5.09438 10.0712 5.09053C10.0681 5.08649 10.065 5.08242 10.0619 5.07835C10.0596 5.07531 10.0574 5.0723 10.0551 5.06928C10.0511 5.0639 10.0471 5.05846 10.0431 5.05299C10.0406 5.04965 10.0382 5.04631 10.0358 5.04297C10.0327 5.03863 10.0296 5.03429 10.0265 5.02993C10.0238 5.02618 10.0212 5.02239 10.0185 5.01859C10.015 5.01359 10.0116 5.00861 10.0082 5.00361C10.0058 5.00011 10.0034 4.9966 10.0011 4.99307C9.98079 4.96297 9.9614 4.93225 9.94289 4.90095L9.9369 4.89071L5.10099 7.6624C5.11121 7.68001 5.12094 7.69742 5.13038 7.71496C5.13363 7.72099 5.13684 7.72704 5.14001 7.7331C5.1424 7.73765 5.14475 7.74219 5.14709 7.74673C5.14847 7.74942 5.14984 7.7521 5.1512 7.75478C5.15958 7.7713 5.16772 7.78794 5.17561 7.80469C5.17706 7.80779 5.17851 7.81087 5.17994 7.81396C5.18272 7.81994 5.18546 7.82594 5.18818 7.83195C5.18945 7.83477 5.19071 7.83758 5.19197 7.8404C5.19475 7.84664 5.1975 7.8529 5.20021 7.85918C5.21157 7.88544 5.22231 7.91193 5.23244 7.93863C5.24214 7.9642 5.25128 7.98997 5.25985 8.01593C5.26091 8.01912 5.26196 8.02236 5.26302 8.0256C5.27577 8.06495 5.28721 8.10467 5.29734 8.14474C5.29849 8.1493 5.29963 8.15386 5.30074 8.15843C5.30455 8.17401 5.30817 8.18963 5.31158 8.2053C5.31241 8.20911 5.31322 8.21289 5.31402 8.21668C5.31556 8.22397 5.31706 8.2313 5.31852 8.23863C5.31919 8.24202 5.31985 8.2454 5.32051 8.24879C5.32573 8.27584 5.33035 8.303 5.33438 8.33026C5.33581 8.33995 5.33717 8.34966 5.33845 8.35938C5.34015 8.37234 5.34172 8.38532 5.34316 8.39833C5.34617 8.42558 5.34858 8.45294 5.35039 8.48037C5.35075 8.48579 5.35108 8.49121 5.35139 8.49664C5.35163 8.50081 5.35186 8.505 5.35207 8.5092C5.35296 8.52686 5.3536 8.54454 5.35399 8.56224C5.3544 8.581 5.35453 8.59976 5.35437 8.61853C5.35434 8.623 5.35428 8.62751 5.35421 8.63202C5.35416 8.6354 5.3541 8.63871 5.35403 8.64202C5.35365 8.65997 5.35302 8.67799 5.35211 8.69602C5.3518 8.70241 5.35144 8.70881 5.35106 8.71522C5.35079 8.71959 5.35051 8.72396 5.35022 8.72833C5.34998 8.73188 5.34973 8.73542 5.34947 8.73896C5.34795 8.75964 5.34609 8.78034 5.34387 8.80102C5.34384 8.80134 5.3438 8.80167 5.34377 8.80199L5.34387 8.80102C5.33931 8.84362 5.33325 8.88618 5.32569 8.92863C5.32495 8.93275 5.32421 8.93687 5.32344 8.94099C5.32248 8.94622 5.32149 8.95144 5.32047 8.95666C5.31745 8.97224 5.31422 8.9878 5.31079 9.00333C5.30793 9.01626 5.30493 9.0292 5.30177 9.04212L8.81961 11.0583ZM20.1378 9.37566C20.5685 9.12877 20.7161 8.58195 20.4674 8.15431C20.2187 7.72668 19.6679 7.58016 19.2371 7.82705C18.8976 8.02167 18.734 8.40264 18.8017 8.7647C18.8023 8.76823 18.803 8.77176 18.8037 8.7753L18.8017 8.7647C18.803 8.7714 18.8043 8.7781 18.8057 8.78479L18.8037 8.7753C18.8054 8.78389 18.8073 8.79247 18.8093 8.80102L18.8057 8.78479C18.8076 8.79382 18.8097 8.80283 18.8119 8.81182L18.8093 8.80102C18.8109 8.80809 18.8126 8.81515 18.8144 8.82219L18.8119 8.81182C18.8137 8.8195 18.8157 8.82716 18.8178 8.8348L18.8144 8.82219C18.8166 8.83055 18.8189 8.83889 18.8213 8.84721L18.8178 8.8348C18.8198 8.84193 18.8218 8.84904 18.8239 8.85613L18.8213 8.84721C18.8289 8.87351 18.8378 8.89957 18.8479 8.92532C18.8493 8.92894 18.8507 8.93256 18.8522 8.93618L18.8479 8.92532C18.8511 8.93346 18.8544 8.94157 18.8579 8.94965L18.8522 8.93618C18.8552 8.94359 18.8584 8.95097 18.8616 8.95833L18.8579 8.94965C18.8608 8.95645 18.8638 8.96322 18.8668 8.96996L18.8616 8.95833C18.8655 8.96707 18.8695 8.97578 18.8736 8.98445L18.8668 8.96996C18.8701 8.9772 18.8736 8.98441 18.8771 8.99158L18.8736 8.98445C18.877 8.99158 18.8805 8.99868 18.8842 9.00576L18.8771 8.99158C18.8813 9.00032 18.8858 9.00901 18.8904 9.01765L18.8842 9.00576C18.8894 9.01593 18.8948 9.02604 18.9004 9.03609L18.9075 9.0484C18.9198 9.06961 18.9329 9.09017 18.9467 9.11006C18.9487 9.1129 18.9507 9.11572 18.9527 9.11852L18.9467 9.11006C18.9564 9.12395 18.9664 9.1375 18.9767 9.15073C18.9786 9.15307 18.9804 9.15535 18.9822 9.15762L18.9767 9.15073C18.981 9.15611 18.9852 9.16144 18.9896 9.16672L18.9822 9.15762C18.988 9.16492 18.9939 9.17211 19 9.17919L18.9896 9.16672C18.9944 9.17269 18.9994 9.17858 19.0044 9.1844L19 9.17919C19.0045 9.18451 19.0091 9.18977 19.0137 9.19496L19.0044 9.1844C19.0165 9.19837 19.029 9.21193 19.0418 9.22505C19.0511 9.23451 19.0605 9.24374 19.0701 9.25274C19.0791 9.2611 19.0881 9.26926 19.0974 9.27722C19.1024 9.28146 19.1074 9.28566 19.1124 9.2898L19.0974 9.27722C19.1033 9.28233 19.1093 9.28736 19.1154 9.2923L19.1124 9.2898C19.3941 9.52163 19.8023 9.56792 20.1378 9.37566ZM4.08709 9.2461L4.09435 9.2391C4.10354 9.23011 4.11256 9.22091 4.12138 9.2115C4.12262 9.21019 4.1238 9.20891 4.12499 9.20764L4.12138 9.2115C4.12692 9.2056 4.13238 9.19961 4.13777 9.19355L4.12499 9.20764C4.13087 9.20129 4.13667 9.19485 4.14239 9.18832L4.13777 9.19355C4.14337 9.18724 4.14888 9.18085 4.15432 9.17437L4.14239 9.18832C4.14728 9.18272 4.1521 9.17706 4.15687 9.17133L4.15432 9.17437C4.15891 9.16889 4.16345 9.16335 4.16792 9.15775L4.15687 9.17133C4.16315 9.16377 4.16933 9.15608 4.1754 9.14828L4.16792 9.15775C4.173 9.15138 4.17801 9.14494 4.18294 9.13841L4.1754 9.14828C4.17995 9.14241 4.18444 9.13647 4.18887 9.13047L4.18294 9.13841C4.18771 9.13208 4.19241 9.12568 4.19704 9.11921L4.18887 9.13047C4.1939 9.12366 4.19884 9.11676 4.20369 9.10977L4.19704 9.11921C4.21325 9.09649 4.22852 9.07288 4.24275 9.0484C4.24513 9.04432 4.24747 9.04021 4.24978 9.0361L4.24275 9.0484C4.25334 9.03021 4.2632 9.01179 4.27236 8.99319C4.2746 8.98863 4.2768 8.98407 4.27896 8.97949L4.27236 8.99319C4.27496 8.98791 4.2775 8.98261 4.27999 8.97731L4.27896 8.97949C4.28249 8.97199 4.28592 8.96445 4.28923 8.95689C4.29021 8.95467 4.29118 8.95244 4.29214 8.9502L4.28923 8.95689C4.30373 8.92377 4.3161 8.89006 4.32635 8.85593C4.32699 8.85381 4.32761 8.85171 4.32822 8.84961L4.32635 8.85593C4.32867 8.84822 4.33088 8.84048 4.33298 8.83272L4.32822 8.84961C4.33063 8.84135 4.33292 8.83308 4.33508 8.82479L4.33298 8.83272C4.33498 8.82535 4.33688 8.81797 4.33868 8.81056L4.33508 8.82479C4.33941 8.80815 4.34324 8.79145 4.34658 8.7747C4.34708 8.77238 4.34753 8.77008 4.34797 8.76777L4.34658 8.7747C4.41925 8.40967 4.25578 8.02346 3.91309 7.82705C3.48232 7.58016 2.9315 7.72668 2.6828 8.15431C2.43409 8.58195 2.58168 9.12877 3.01245 9.37566C3.36801 9.57945 3.80536 9.51521 4.08709 9.2461ZM4.78148 16.5539L6.92701 15.3242C6.5622 14.8783 6.34357 14.3098 6.34357 13.6906C6.34357 12.7588 6.83872 11.9418 7.58207 11.4847L4.82503 9.90449C4.81386 9.91602 4.80255 9.92739 4.79112 9.93859C4.77135 9.95797 4.75121 9.97685 4.73071 9.99524C4.64751 10.0699 4.55842 10.1363 4.4647 10.1943C4.42821 10.2169 4.39102 10.2382 4.3532 10.2581L4.35203 10.2588C4.33485 10.2678 4.31755 10.2766 4.30012 10.2851C4.27504 10.2974 4.24974 10.3091 4.22421 10.3202C4.21564 10.3239 4.20704 10.3276 4.19842 10.3312C4.17888 10.3394 4.15919 10.3472 4.13939 10.3548C4.12667 10.3596 4.11394 10.3643 4.10117 10.3688C4.07724 10.3773 4.05315 10.3853 4.0289 10.3929C4.0141 10.3975 3.99927 10.4019 3.98437 10.4061C3.95819 10.4136 3.93183 10.4205 3.90533 10.4268C3.88958 10.4306 3.87376 10.4342 3.85789 10.4375C3.84271 10.4408 3.82747 10.4438 3.81219 10.4467C3.80909 10.4472 3.80604 10.4478 3.80298 10.4484C3.79146 10.4505 3.77988 10.4525 3.76828 10.4544C3.75294 10.4569 3.7376 10.4592 3.72223 10.4613C3.72058 10.4615 3.71896 10.4617 3.71733 10.462C3.71415 10.4624 3.71091 10.4628 3.70768 10.4632C3.68971 10.4656 3.67173 10.4677 3.65371 10.4695C3.6363 10.4713 3.61891 10.4728 3.6015 10.4741C3.59744 10.4744 3.59339 10.4747 3.58934 10.4749C3.57166 10.4761 3.55395 10.4771 3.53621 10.4778C3.53261 10.4779 3.52901 10.4781 3.52542 10.4782C3.51442 10.4785 3.50341 10.4788 3.4924 10.479L3.46318 10.4793L3.46277 10.4793V16.0226H3.46318C3.52166 16.0227 3.58 16.0255 3.638 16.0309C3.64837 16.0318 3.6587 16.0329 3.66903 16.034C3.69268 16.0366 3.71629 16.0397 3.73982 16.0431C3.75625 16.0456 3.77263 16.0482 3.78897 16.051C3.81083 16.0549 3.83261 16.059 3.85431 16.0636C3.87173 16.0673 3.88905 16.0712 3.90631 16.0753L3.93756 16.0831C3.99601 16.0981 4.05374 16.1159 4.11053 16.1365C4.12369 16.1412 4.13674 16.1461 4.14975 16.1511C4.17687 16.1616 4.20353 16.1726 4.22993 16.1842C4.23444 16.1862 4.23898 16.1882 4.24352 16.1902C4.2544 16.1951 4.26519 16.2001 4.27593 16.2052C4.29631 16.2148 4.31653 16.2247 4.33658 16.2351C4.39256 16.264 4.44719 16.2957 4.50024 16.3302C4.51364 16.3389 4.52694 16.3477 4.54013 16.3568C4.54552 16.3605 4.5509 16.3642 4.55627 16.368C4.57293 16.3797 4.5894 16.3917 4.6057 16.4039C4.66697 16.45 4.7257 16.5 4.78148 16.5539ZM18.3835 16.54L18.3936 16.5303C18.4264 16.4998 18.46 16.4707 18.4946 16.4428C18.5557 16.3935 18.6196 16.3484 18.6857 16.3075L18.6867 16.3069C18.7012 16.298 18.7157 16.2892 18.7303 16.2807C18.7338 16.2787 18.7372 16.2767 18.7407 16.2747L18.7303 16.2807C18.7586 16.2643 18.7873 16.2486 18.8163 16.2337C18.8577 16.2124 18.8998 16.1927 18.9426 16.1746C19.0067 16.1474 19.0722 16.1237 19.1389 16.1037C19.1435 16.1023 19.148 16.1009 19.1526 16.0996C19.1675 16.0952 19.1825 16.0911 19.1975 16.0871C19.222 16.0805 19.2466 16.0745 19.2714 16.0689C19.2772 16.0676 19.283 16.0664 19.2889 16.0651C19.3055 16.0615 19.3222 16.0582 19.3389 16.0551C19.3404 16.0548 19.3418 16.0545 19.3433 16.0543C19.3517 16.0527 19.36 16.0512 19.3684 16.0498L19.3433 16.0543C19.3561 16.0519 19.369 16.0497 19.3818 16.0476C19.3988 16.0448 19.4158 16.0423 19.4328 16.04C19.451 16.0375 19.4691 16.0353 19.4873 16.0334C19.4904 16.033 19.4936 16.0327 19.4968 16.0324C19.5138 16.0307 19.5308 16.0292 19.5479 16.0279C19.5522 16.0276 19.5565 16.0273 19.5608 16.027C19.5778 16.0258 19.5947 16.0249 19.6117 16.0242C19.6161 16.024 19.6205 16.0239 19.6249 16.0237C19.6269 16.0237 19.6288 16.0236 19.6308 16.0235C19.6496 16.023 19.6685 16.0227 19.6874 16.0226L19.6834 16.0227L19.687 16.0226L19.6874 16.0226V10.4793H19.687C19.6522 10.4792 19.6174 10.4782 19.5828 10.4763C19.5683 10.4755 19.5539 10.4745 19.5395 10.4734C19.52 10.4718 19.5006 10.47 19.4812 10.4679C19.461 10.4657 19.4408 10.4631 19.4206 10.4603C19.407 10.4583 19.3934 10.4562 19.3798 10.454C19.3634 10.4513 19.347 10.4484 19.3307 10.4453C19.3151 10.4423 19.2995 10.4391 19.2839 10.4357C19.2394 10.4261 19.1952 10.4148 19.1514 10.402C19.1006 10.3871 19.0506 10.3701 19.0014 10.3512C18.9837 10.3443 18.9661 10.3372 18.9486 10.3299C18.943 10.3275 18.9375 10.3252 18.9319 10.3228C18.9085 10.3127 18.8854 10.3021 18.8625 10.2911C18.8505 10.2854 18.8386 10.2795 18.8268 10.2735C18.7899 10.2549 18.7536 10.235 18.7179 10.2139C18.7071 10.2075 18.6963 10.201 18.6856 10.1943L18.6585 10.1773C18.6495 10.1715 18.6406 10.1656 18.6316 10.1597C18.5272 10.09 18.4292 10.0096 18.3393 9.9189L14.9261 11.8751C16.0128 12.0106 16.8561 12.9227 16.8743 14.034L16.8746 14.0706C16.8746 14.5754 16.7043 15.0408 16.4176 15.4132L18.3835 16.54ZM11.4586 15.3L14.6455 15.3C15.3294 15.3 15.8839 14.7496 15.8839 14.0706C15.8839 13.3916 15.3294 12.8412 14.6455 12.8412L13.9632 12.8412L13.9266 12.3889C13.833 11.2335 12.8576 10.3358 11.6823 10.3358C10.7434 10.3358 9.91321 10.9115 9.5808 11.7666L9.45845 12.0812L8.95543 12.0812C8.06009 12.0812 7.33427 12.8018 7.33427 13.6906C7.33427 14.5794 8.06009 15.3 8.95543 15.3H11.3768C11.3878 15.3 11.3985 15.2999 11.4091 15.2996L11.4197 15.2994L11.4445 15.2999L11.4586 15.3ZM9.9369 21.6112L9.94229 21.602C9.95014 21.5887 9.95815 21.5755 9.96632 21.5624C9.96885 21.5584 9.97138 21.5543 9.97392 21.5503C9.97619 21.5468 9.97848 21.5432 9.98079 21.5396C9.98361 21.5352 9.98643 21.5309 9.98927 21.5266C10.0136 21.4895 10.0392 21.4533 10.0661 21.4181C10.0792 21.4008 10.0927 21.3838 10.1065 21.367C10.1287 21.3398 10.1516 21.3133 10.1753 21.2875C10.1774 21.2851 10.1796 21.2828 10.1818 21.2804C10.1862 21.2757 10.1906 21.271 10.195 21.2663C10.1974 21.2638 10.1997 21.2613 10.202 21.2589C10.2066 21.2541 10.2111 21.2494 10.2158 21.2447C10.2563 21.2031 10.2987 21.1634 10.3429 21.1257C10.3627 21.1088 10.3829 21.0922 10.4035 21.0761C10.4062 21.0739 10.409 21.0718 10.4117 21.0696C10.4167 21.0658 10.4216 21.0621 10.4265 21.0583C10.4309 21.055 10.4353 21.0517 10.4397 21.0483C10.4427 21.0462 10.4456 21.044 10.4485 21.0418C10.4615 21.0322 10.4747 21.0228 10.4879 21.0136C10.4915 21.011 10.4951 21.0085 10.4987 21.0061C10.5114 20.9973 10.5243 20.9887 10.5372 20.9803C10.5428 20.9766 10.5485 20.9729 10.5542 20.9693C10.5702 20.9591 10.5864 20.9491 10.6027 20.9394C10.6063 20.9372 10.61 20.9351 10.6136 20.9329C10.6271 20.925 10.6407 20.9173 10.6543 20.9097C10.658 20.9076 10.6618 20.9056 10.6655 20.9035C10.6702 20.901 10.6749 20.8985 10.6795 20.896C10.6942 20.8881 10.709 20.8805 10.7239 20.873C10.7263 20.8718 10.7286 20.8706 10.731 20.8695C10.7367 20.8666 10.7424 20.8638 10.7481 20.8611C10.7523 20.8591 10.7564 20.8571 10.7606 20.8551C10.7744 20.8485 10.7884 20.8421 10.8024 20.8359C10.8163 20.8297 10.8303 20.8237 10.8444 20.8178C10.8606 20.8111 10.877 20.8045 10.8935 20.7982C10.9119 20.7911 10.9305 20.7843 10.9492 20.7778C10.9518 20.7769 10.9544 20.776 10.9569 20.7751C10.9728 20.7697 10.9888 20.7644 11.0049 20.7594C11.0086 20.7582 11.0122 20.7571 11.0159 20.756C11.0211 20.7544 11.0263 20.7528 11.0316 20.7512C11.0363 20.7498 11.041 20.7485 11.0457 20.7471C11.0514 20.7455 11.057 20.7438 11.0627 20.7423C11.0654 20.7415 11.068 20.7408 11.0706 20.7401C11.0755 20.7387 11.0804 20.7374 11.0854 20.7361L11.0926 20.7343L11.0926 16.2835L8.95543 16.2835C8.51944 16.2835 8.10841 16.1774 7.74707 15.9899L5.28624 17.4003C5.29118 17.418 5.29585 17.4358 5.30025 17.4536C5.30413 17.4692 5.3078 17.485 5.31126 17.5007C5.3145 17.5155 5.31754 17.5302 5.32041 17.5449C5.3215 17.5505 5.32256 17.5561 5.32359 17.5617C5.32463 17.5673 5.32564 17.5729 5.32662 17.5785C5.3337 17.619 5.33941 17.6595 5.34378 17.7C5.34457 17.7074 5.34532 17.7148 5.34603 17.7222C5.34732 17.7358 5.34847 17.7493 5.34946 17.7629C5.3498 17.7675 5.35012 17.7721 5.35043 17.7767C5.35084 17.783 5.35122 17.7892 5.35157 17.7955C5.35181 17.7998 5.35203 17.8041 5.35224 17.8084C5.3531 17.8261 5.35371 17.8438 5.35406 17.8615C5.35417 17.8666 5.35425 17.8718 5.35431 17.877C5.35435 17.8809 5.35439 17.8849 5.35441 17.8888L5.35431 17.877C5.35459 17.9011 5.3544 17.9251 5.35376 17.9492C5.35335 17.9643 5.35275 17.9794 5.35198 17.9945C5.35174 17.999 5.3515 18.0035 5.35123 18.008C5.35097 18.0125 5.35069 18.017 5.35039 18.0215C5.34796 18.0584 5.34443 18.0952 5.33983 18.1318C5.3385 18.1423 5.33709 18.1529 5.33558 18.1634C5.33472 18.1694 5.33383 18.1754 5.33291 18.1814L5.33558 18.1634C5.33121 18.1939 5.3261 18.2242 5.32025 18.2545C5.31958 18.2579 5.3189 18.2614 5.31821 18.2648C5.31261 18.2929 5.30637 18.3208 5.29948 18.3486C5.29466 18.3681 5.28953 18.3875 5.28408 18.4068C5.28305 18.4104 5.282 18.4141 5.28095 18.4178C5.2802 18.4204 5.27943 18.423 5.27866 18.4256L5.28095 18.4178C5.27497 18.4385 5.26865 18.4591 5.26196 18.4795C5.26103 18.4824 5.26009 18.4853 5.25914 18.4881C5.25707 18.4944 5.25498 18.5006 5.25284 18.5068C5.25194 18.5094 5.25103 18.5121 5.25011 18.5147C5.24417 18.5318 5.23798 18.5488 5.23154 18.5657C5.22011 18.5957 5.20792 18.6254 5.19496 18.6547C5.18555 18.6761 5.17572 18.6973 5.16549 18.7184C5.16302 18.7234 5.16051 18.7285 5.15796 18.7337C5.15594 18.7377 5.15391 18.7418 5.15186 18.7458C5.14926 18.751 5.1466 18.7561 5.14392 18.7613C5.14225 18.7645 5.14058 18.7677 5.13889 18.771C5.13599 18.7765 5.13306 18.782 5.13011 18.7875C5.12077 18.8048 5.11113 18.822 5.1012 18.8392L5.10099 18.8395L9.9369 21.6112ZM13.2133 21.6112L18.0492 18.8395C18.0413 18.8259 18.0336 18.8122 18.0261 18.7984C18.0241 18.7948 18.0221 18.7911 18.0201 18.7874C18.0172 18.782 18.0142 18.7765 18.0113 18.771C18.0096 18.7677 18.008 18.7645 18.0063 18.7613C18.0033 18.7555 18.0003 18.7496 17.9973 18.7437C17.9958 18.7408 17.9943 18.7378 17.9928 18.7348C17.9899 18.7289 17.987 18.7231 17.9841 18.7172C17.982 18.7127 17.9798 18.7081 17.9776 18.7036C17.9768 18.7018 17.9759 18.6999 17.975 18.6981L17.9776 18.7036C17.9735 18.6949 17.9694 18.6861 17.9654 18.6774C17.9588 18.6629 17.9523 18.6483 17.9461 18.6336L17.9454 18.6319C17.929 18.5933 17.9139 18.5542 17.9001 18.5147C17.8992 18.5121 17.8983 18.5094 17.8974 18.5068C17.8952 18.5006 17.8931 18.4944 17.8911 18.4881C17.8901 18.4853 17.8892 18.4824 17.8882 18.4795C17.8863 18.4737 17.8845 18.4679 17.8826 18.462C17.878 18.4473 17.8735 18.4325 17.8693 18.4177C17.8682 18.4141 17.8672 18.4104 17.8661 18.4068C17.8607 18.3875 17.8556 18.3681 17.8507 18.3486C17.8464 18.3309 17.8422 18.3132 17.8384 18.2954C17.8375 18.2913 17.8366 18.2871 17.8357 18.2829C17.8322 18.2664 17.829 18.2499 17.826 18.2334C17.8236 18.2202 17.8213 18.2069 17.8192 18.1937L17.8185 18.1891C17.8036 18.0946 17.796 17.9988 17.7958 17.9026C17.7958 17.8981 17.7958 17.8935 17.7958 17.8889C17.7958 17.8849 17.7959 17.8809 17.7959 17.877L17.7958 17.8889C17.7959 17.8797 17.796 17.8706 17.7962 17.8615C17.7963 17.8541 17.7965 17.8468 17.7967 17.8395C17.7969 17.8348 17.797 17.8302 17.7972 17.8255C17.7974 17.8198 17.7977 17.8141 17.798 17.8084C17.7982 17.8047 17.7983 17.801 17.7986 17.7973C17.7994 17.7811 17.8005 17.7649 17.8018 17.7488C17.8023 17.7428 17.8028 17.7369 17.8034 17.731C17.8071 17.6897 17.8123 17.6483 17.8188 17.6071C17.8193 17.604 17.8198 17.601 17.8203 17.5979C17.8234 17.5794 17.8267 17.5608 17.8303 17.5423C17.831 17.539 17.8316 17.5357 17.8323 17.5324C17.8337 17.5252 17.8352 17.518 17.8368 17.5108C17.8375 17.5075 17.8382 17.5041 17.8389 17.5008C17.8401 17.4955 17.8413 17.4902 17.8425 17.4849C17.8439 17.479 17.8452 17.4731 17.8467 17.4671C17.8509 17.4496 17.8553 17.4321 17.8601 17.4146C17.862 17.4073 17.8641 17.3999 17.8662 17.3926C17.8673 17.3887 17.8684 17.3848 17.8695 17.381L15.5911 16.0751C15.304 16.2088 14.9835 16.2835 14.6455 16.2835L12.0833 16.2835L12.0833 20.7411C12.0926 20.7437 12.1019 20.7463 12.1112 20.749C12.114 20.7499 12.1168 20.7507 12.1196 20.7515C12.1262 20.7535 12.1328 20.7555 12.1395 20.7576C12.1428 20.7586 12.1461 20.7596 12.1495 20.7607C12.1556 20.7626 12.1616 20.7645 12.1676 20.7665C12.171 20.7677 12.1745 20.7688 12.178 20.77C12.1944 20.7754 12.2107 20.7811 12.2269 20.787C12.2296 20.788 12.2324 20.789 12.2352 20.7901C12.2406 20.7921 12.246 20.7941 12.2513 20.7961C12.2658 20.8016 12.2801 20.8073 12.2944 20.8131C12.3158 20.8218 12.337 20.831 12.358 20.8405C12.3695 20.8457 12.3809 20.8509 12.3922 20.8563C12.396 20.8581 12.3998 20.86 12.4037 20.8618C12.4272 20.8733 12.4505 20.8851 12.4735 20.8975C12.4794 20.9006 12.4853 20.9038 12.4911 20.9071C12.4938 20.9085 12.4965 20.91 12.4991 20.9115C12.5041 20.9142 12.509 20.917 12.5139 20.9198C12.5189 20.9227 12.524 20.9256 12.529 20.9285C12.5325 20.9305 12.536 20.9326 12.5396 20.9347C12.5456 20.9382 12.5515 20.9418 12.5575 20.9454C12.5593 20.9465 12.5611 20.9476 12.563 20.9487C12.57 20.953 12.577 20.9573 12.584 20.9617C12.5865 20.9633 12.5889 20.9648 12.5914 20.9664C12.5958 20.9692 12.6003 20.972 12.6047 20.9749C12.6092 20.9778 12.6136 20.9806 12.618 20.9835C12.6221 20.9862 12.6262 20.9889 12.6302 20.9916C12.6343 20.9944 12.6384 20.9971 12.6425 20.9999C12.6482 21.0038 12.6538 21.0076 12.6594 21.0115C12.6752 21.0225 12.6907 21.0337 12.7061 21.0451C12.7176 21.0536 12.729 21.0623 12.7403 21.0711C12.7442 21.0741 12.748 21.0771 12.7518 21.08C12.7797 21.1021 12.807 21.1249 12.8336 21.1485C12.8367 21.1513 12.8399 21.1541 12.8431 21.157C12.8491 21.1623 12.855 21.1677 12.8608 21.1731C12.8628 21.1749 12.8648 21.1768 12.8668 21.1786C12.8694 21.181 12.8719 21.1834 12.8745 21.1858C12.8795 21.1905 12.8846 21.1954 12.8897 21.2002C12.8923 21.2027 12.8948 21.2052 12.8974 21.2076C12.9005 21.2107 12.9036 21.2137 12.9067 21.2168L12.9125 21.2225C12.9141 21.2241 12.9158 21.2258 12.9174 21.2274C12.9286 21.2386 12.9397 21.2499 12.9506 21.2614L12.9529 21.2639C12.9618 21.2733 12.9706 21.2827 12.9793 21.2923C12.9866 21.3003 12.9937 21.3083 13.0008 21.3164C13.0112 21.3282 13.0214 21.3401 13.0315 21.3521C13.0342 21.3554 13.0369 21.3587 13.0396 21.3619C13.0436 21.3667 13.0475 21.3715 13.0514 21.3763C13.0609 21.3882 13.0704 21.4001 13.0797 21.4122C13.0825 21.416 13.0854 21.4197 13.0883 21.4235C13.0907 21.4268 13.0932 21.43 13.0956 21.4333C13.0995 21.4386 13.1034 21.4438 13.1073 21.4491C13.1094 21.452 13.1115 21.4548 13.1135 21.4577C13.1175 21.4632 13.1215 21.4687 13.1254 21.4743C13.1273 21.477 13.1292 21.4797 13.1311 21.4825C13.1346 21.4874 13.138 21.4924 13.1414 21.4974C13.144 21.5011 13.1465 21.5048 13.149 21.5086C13.1679 21.5367 13.186 21.5652 13.2034 21.5943L13.2133 21.6112ZM3.91309 18.6749C4.2533 18.4799 4.41688 18.0978 4.34812 17.7351C4.34766 17.7325 4.34715 17.7299 4.34662 17.7272L4.34812 17.7351C4.34534 17.7205 4.34219 17.7059 4.33866 17.6913C4.32337 17.6284 4.30102 17.5667 4.27155 17.5071C4.27017 17.5043 4.26875 17.5015 4.26732 17.4986L4.27155 17.5071C4.26841 17.5007 4.2652 17.4944 4.26189 17.4881L4.26732 17.4986C4.26326 17.4906 4.25907 17.4827 4.25475 17.4748L4.24275 17.4535C4.23048 17.4324 4.21744 17.4119 4.20369 17.3921C4.20164 17.3892 4.19957 17.3862 4.19748 17.3833L4.20369 17.3921C4.19922 17.3857 4.19467 17.3793 4.19005 17.3731L4.19748 17.3833C4.19266 17.3765 4.18775 17.3698 4.18276 17.3632L4.19005 17.3731C4.1847 17.3658 4.17926 17.3586 4.17371 17.3515L4.18276 17.3632C4.17845 17.3575 4.17408 17.3519 4.16965 17.3463L4.17371 17.3515C4.16852 17.3448 4.16324 17.3383 4.15788 17.3318L4.16965 17.3463C4.16467 17.34 4.15961 17.3338 4.15448 17.3277L4.15788 17.3318C4.14844 17.3204 4.13875 17.3093 4.12881 17.2984C3.85002 16.9939 3.38608 16.9121 3.01245 17.1262C2.58168 17.3731 2.43409 17.92 2.6828 18.3476C2.9315 18.7752 3.48232 18.9218 3.91309 18.6749ZM20.4674 18.3476C20.7161 17.92 20.5685 17.3731 20.1378 17.1262C19.7963 16.9306 19.3795 16.982 19.0974 17.2247C19.0915 17.2297 19.0858 17.2348 19.08 17.24L19.0631 17.2558C19.0538 17.2647 19.0446 17.2738 19.0357 17.2832C19.0335 17.2855 19.0313 17.2877 19.0292 17.29L19.0357 17.2832C19.0309 17.2882 19.0262 17.2932 19.0215 17.2983L19.0292 17.29C19.024 17.2955 19.0189 17.3011 19.0139 17.3068L19.0215 17.2983C19.0161 17.3042 19.0108 17.3101 19.0056 17.3162L19.0139 17.3068C19.0085 17.3128 19.0032 17.3189 18.998 17.3251L19.0056 17.3162C19.0003 17.3222 18.9952 17.3283 18.9901 17.3345L18.998 17.3251C18.9818 17.3442 18.9664 17.364 18.9518 17.3846C18.9501 17.387 18.9484 17.3894 18.9467 17.3918L18.9518 17.3846C18.9361 17.4067 18.9213 17.4297 18.9075 17.4535C18.9033 17.4606 18.8993 17.4677 18.8954 17.4749C18.8939 17.4777 18.8924 17.4804 18.891 17.4831L18.8954 17.4749C18.891 17.4829 18.8868 17.4909 18.8827 17.499L18.891 17.4831C18.8869 17.4907 18.883 17.4983 18.8792 17.506L18.8827 17.499C18.8793 17.5057 18.876 17.5124 18.8728 17.5192L18.8792 17.506C18.8752 17.514 18.8714 17.5221 18.8676 17.5302L18.8728 17.5192C18.8649 17.5358 18.8576 17.5525 18.8508 17.5693C18.8498 17.5717 18.8488 17.5741 18.8479 17.5765L18.8508 17.5693C18.8376 17.6019 18.8265 17.635 18.8174 17.6684C18.8163 17.6726 18.8152 17.6767 18.8142 17.6808L18.8174 17.6684C18.8154 17.676 18.8134 17.6836 18.8116 17.6912L18.8142 17.6808C18.8123 17.6882 18.8105 17.6955 18.8088 17.7029L18.8116 17.6912C18.8095 17.6999 18.8075 17.7085 18.8057 17.7171L18.8088 17.7029C18.807 17.7108 18.8053 17.7187 18.8037 17.7267L18.8057 17.7171C18.8042 17.7241 18.8028 17.731 18.8015 17.738L18.8037 17.7267C18.7308 18.0919 18.8943 18.4784 19.2371 18.6749C19.6679 18.9218 20.2187 18.7752 20.4674 18.3476ZM11.5751 23.4442C12.0725 23.4442 12.4757 23.0439 12.4757 22.5501C12.4757 22.1721 12.2394 21.8489 11.9054 21.7181C11.903 21.7171 11.9005 21.7161 11.8981 21.7152L11.9054 21.7181C11.8993 21.7157 11.8931 21.7133 11.8869 21.7111L11.8981 21.7152C11.8908 21.7124 11.8834 21.7097 11.8761 21.7071L11.8869 21.7111C11.8799 21.7085 11.8729 21.7061 11.8659 21.7037L11.8761 21.7071C11.8687 21.7045 11.8613 21.702 11.8538 21.6996L11.8659 21.7037C11.8581 21.701 11.8502 21.6985 11.8424 21.6961L11.8538 21.6996C11.8461 21.6972 11.8383 21.6948 11.8305 21.6925L11.8424 21.6961C11.8355 21.694 11.8287 21.6919 11.8218 21.69L11.8305 21.6925C11.823 21.6903 11.8155 21.6882 11.808 21.6862L11.8218 21.69C11.8137 21.6877 11.8055 21.6855 11.7972 21.6835L11.808 21.6862C11.7897 21.6814 11.7712 21.6771 11.7525 21.6734C11.7485 21.6726 11.7446 21.6719 11.7407 21.6711L11.7525 21.6734C11.7454 21.672 11.7383 21.6707 11.7311 21.6694L11.7407 21.6711C11.7326 21.6696 11.7244 21.6682 11.7163 21.667L11.7311 21.6694C11.7225 21.6679 11.7138 21.6666 11.7051 21.6653L11.7163 21.667C11.7105 21.6661 11.7048 21.6652 11.699 21.6644L11.7051 21.6653C11.6962 21.664 11.6872 21.6629 11.6782 21.6619L11.699 21.6644C11.6911 21.6634 11.6832 21.6624 11.6752 21.6615L11.6782 21.6619C11.6706 21.661 11.663 21.6602 11.6554 21.6596L11.6752 21.6615C11.6666 21.6606 11.658 21.6597 11.6494 21.659L11.6554 21.6596C11.6469 21.6588 11.6384 21.6582 11.6299 21.6577L11.6494 21.659C11.6411 21.6584 11.6329 21.6578 11.6246 21.6574L11.6299 21.6577C11.6219 21.6572 11.6138 21.6568 11.6058 21.6566L11.6246 21.6574C11.6082 21.6565 11.5917 21.6561 11.5751 21.6561L11.5506 21.6564C11.5486 21.6564 11.5465 21.6565 11.5445 21.6566L11.5506 21.6564C11.5422 21.6566 11.5339 21.6569 11.5256 21.6574L11.5445 21.6566C11.5364 21.6568 11.5283 21.6572 11.5203 21.6577L11.5256 21.6574C11.5173 21.6578 11.5091 21.6584 11.5009 21.6591L11.5203 21.6577C11.5117 21.6582 11.5033 21.6588 11.4948 21.6596L11.5009 21.6591C11.4922 21.6598 11.4836 21.6606 11.475 21.6615L11.4948 21.6596C11.4872 21.6602 11.4796 21.661 11.472 21.6618L11.475 21.6615C11.4669 21.6624 11.4588 21.6634 11.4508 21.6645L11.472 21.6618C11.4633 21.6628 11.4545 21.664 11.4458 21.6652L11.4508 21.6645C11.4449 21.6653 11.439 21.6662 11.4331 21.6671L11.4458 21.6652C11.4369 21.6665 11.4279 21.6679 11.4191 21.6694L11.4331 21.6671C11.426 21.6682 11.4189 21.6694 11.4118 21.6707L11.4191 21.6694C11.4117 21.6707 11.4044 21.6721 11.3971 21.6735L11.4118 21.6707C11.3917 21.6744 11.3719 21.6787 11.3523 21.6836C11.3494 21.6844 11.3465 21.6851 11.3436 21.6859L11.3523 21.6836C11.3442 21.6857 11.3362 21.6878 11.3282 21.69L11.3436 21.6859C11.3362 21.6878 11.3288 21.6899 11.3214 21.692L11.3282 21.69C11.321 21.6921 11.3139 21.6942 11.3067 21.6964L11.3214 21.692C11.3132 21.6944 11.305 21.6969 11.297 21.6995L11.3067 21.6964C11.2992 21.6987 11.2918 21.7011 11.2844 21.7036L11.297 21.6995C11.2893 21.702 11.2817 21.7045 11.2741 21.7072L11.2844 21.7036C11.2773 21.706 11.2703 21.7085 11.2634 21.711L11.2741 21.7072C11.2667 21.7098 11.2592 21.7126 11.2519 21.7154L11.2634 21.711C11.2574 21.7132 11.2514 21.7154 11.2455 21.7178L11.2519 21.7154C10.9141 21.8443 10.6745 22.1695 10.6745 22.5501C10.6745 23.0439 11.0777 23.4442 11.5751 23.4442Z" fill="#376FFF"/>
<path fill-rule="evenodd" clip-rule="evenodd" d="M56.8643 6.85938C60.7126 6.85938 63.4741 9.70301 63.4741 13.2179V13.2532C63.4741 16.768 60.677 19.647 56.8287 19.647C52.9804 19.647 50.2189 16.8033 50.2189 13.2885V13.2532C50.2189 9.73837 53.016 6.85938 56.8643 6.85938ZM32.4671 6.90063C34.2803 6.90063 35.8268 7.46528 37.0889 8.47113L35.6668 10.5181C34.5647 9.75931 33.4804 9.30049 32.4316 9.30049C31.3828 9.30049 30.8318 9.77693 30.8318 10.3769V10.4122C30.8318 11.2239 31.365 11.4886 33.5159 12.0356C36.0401 12.6885 37.4622 13.5885 37.4622 15.7413V15.7766C37.4622 18.2294 35.578 19.6057 32.8938 19.6057C31.0095 19.6057 29.1075 18.9529 27.6143 17.6294L29.2319 15.706C30.3518 16.6236 31.525 17.2059 32.9471 17.2059C34.067 17.2059 34.7425 16.7647 34.7425 16.0413V16.006C34.7425 15.3178 34.3159 14.9649 32.236 14.4355C29.7296 13.8002 28.112 13.112 28.112 10.6592V10.6239C28.112 8.38292 29.9252 6.90063 32.4671 6.90063ZM86.4112 7.06564V15.1549C86.4112 18.1574 84.634 19.6057 82.0039 19.6057C80.0669 19.6057 78.7874 18.7579 77.9344 17.7512L79.6582 15.8437C80.3691 16.6208 81.0621 17.0801 81.9329 17.0801C82.9636 17.0801 83.6033 16.4619 83.6033 15.0312V9.82935L79.5134 9.82941V7.06564H86.4112ZM49.0969 7.06564V9.576H45.3125V19.4408H42.5763V9.576H38.7919V7.06564H49.0969ZM71.4934 7.06564C74.4286 7.06564 76.1896 8.60367 76.1896 11.1494V11.1848C76.1896 13.1825 75.1045 14.4377 73.5213 15.021L76.5632 19.4408H73.3613L70.6929 15.4807H68.5405V19.4408H65.8011V7.06564H71.4934ZM56.8287 9.37563C54.6187 9.37563 53.086 11.1029 53.086 13.2179V13.2532C53.086 15.3682 54.6543 17.1307 56.8643 17.1307C59.0743 17.1307 60.607 15.4034 60.607 13.2884V13.2532C60.607 11.1382 59.0387 9.37563 56.8287 9.37563ZM71.2583 9.54064H68.5436V13.0882H71.3115C72.6423 13.0882 73.4052 12.3822 73.4052 11.3409V11.3056C73.4052 10.1407 72.589 9.54064 71.2583 9.54064Z" fill="#091C45"/>
<path d="M101.642 20H106.043C108.699 20 109.925 18.6296 109.925 16.7582C109.925 14.8807 108.681 13.7518 107.48 13.6673V13.5707C108.585 13.2749 109.442 12.4176 109.442 10.8722C109.442 9.01278 108.228 7.63636 105.814 7.63636H101.642V20ZM102.771 18.9858V14.2227H106.091C107.751 14.2227 108.844 15.3455 108.844 16.7582C108.844 18.038 107.951 18.9858 106.043 18.9858H102.771ZM102.771 13.2205V8.65057H105.814C107.504 8.65057 108.361 9.56214 108.361 10.8722C108.361 12.2305 107.377 13.2205 105.916 13.2205H102.771ZM111.987 20L113.309 16.2752H118.501L119.823 20H121.006L116.509 7.63636H115.301L110.804 20H111.987ZM113.671 15.261L115.863 9.10334H115.947L118.139 15.261H113.671ZM131.547 11.5C131.143 9.22408 129.283 7.46733 126.651 7.46733C123.53 7.46733 121.309 9.94851 121.309 13.8182C121.309 17.6879 123.53 20.169 126.651 20.169C129.283 20.169 131.143 18.4062 131.547 16.1364H130.412C130.068 17.8327 128.589 19.1065 126.651 19.1065C124.309 19.1065 122.401 17.2532 122.401 13.8182C122.401 10.3952 124.309 8.52983 126.651 8.52983C128.589 8.52983 130.068 9.80966 130.412 11.5H131.547ZM133.519 20H134.648V15.9854L136.296 14.1381L140.878 20H142.254L136.996 13.3533L142.279 7.63636H140.794L134.757 14.2951H134.648V7.63636H133.519V20ZM151.97 7.63636V15.744C151.97 17.712 150.57 19.1488 148.414 19.1488C146.259 19.1488 144.859 17.712 144.859 15.744V7.63636H143.73V15.8224C143.724 18.3459 145.631 20.2113 148.414 20.2113C151.203 20.2113 153.099 18.3459 153.099 15.8224V7.63636H151.97ZM155.7 20H156.829V15.2731H159.709C162.323 15.2731 163.675 13.6129 163.675 11.4517C163.675 9.29048 162.323 7.63636 159.69 7.63636H155.7V20ZM156.829 14.2589V8.65057H159.66C161.616 8.65057 162.564 9.82777 162.564 11.4517C162.564 13.0696 161.616 14.2589 159.678 14.2589H156.829Z" fill="#091C45"/>
<line x1="94.5" y1="7" x2="94.5" y2="20" stroke="#091C45"/>
</svg>
