<svg width="17" height="16" viewBox="0 0 17 16" fill="none" xmlns="http://www.w3.org/2000/svg">
<path d="M10.0379 0.800781C10.6949 0.800781 11.2275 1.33357 11.2275 1.99084L11.2274 2.18491C11.2274 2.62624 11.585 2.98403 12.0262 2.98404C12.1664 2.98404 12.3041 2.94712 12.4256 2.87698L12.5936 2.77993C13.1625 2.45132 13.89 2.64634 14.2185 3.21554L15.646 5.68908C15.9687 6.24829 15.7862 6.96063 15.2402 7.29709L15.2106 7.31474L15.0426 7.41175C14.6795 7.62146 14.5551 8.08593 14.7647 8.44918C14.8314 8.56464 14.9272 8.66052 15.0426 8.72718L15.1511 8.78986C15.7201 9.11849 15.915 9.84633 15.5865 10.4155L14.2185 12.786C13.8958 13.3453 13.188 13.5433 12.6237 13.2385L12.5936 13.2216L12.4256 13.1245C12.0436 12.9039 11.555 13.0348 11.3345 13.417C11.2643 13.5385 11.2274 13.6763 11.2274 13.8166L11.2274 14.0107C11.2275 14.6568 10.7128 15.1827 10.0712 15.2003L10.0379 15.2008H7.18301C6.52605 15.2008 5.99347 14.668 5.99343 14.0107L5.99342 13.9197C5.99341 13.5112 5.66242 13.1801 5.25413 13.1801C5.12436 13.1801 4.99688 13.2143 4.8845 13.2792L4.80577 13.3247C4.24681 13.6476 3.53479 13.465 3.19847 12.9187L3.18082 12.8891L1.75337 10.4155C1.42492 9.84633 1.61984 9.1185 2.18875 8.78983L2.35682 8.69275C2.73884 8.47208 2.86972 7.98335 2.64915 7.60115C2.57904 7.47967 2.4782 7.37879 2.35676 7.30866L2.1888 7.21165C1.62979 6.88886 1.43179 6.18068 1.73648 5.61614L1.75337 5.58602L3.12135 3.21554C3.44984 2.64635 4.17735 2.45132 4.74631 2.77993L4.85476 2.84257C5.21784 3.05229 5.68211 2.92783 5.89173 2.56458C5.95835 2.44914 5.99342 2.31818 5.99342 2.18488L5.99343 1.99086C5.99347 1.33361 6.52605 0.800781 7.18301 0.800781H10.0379ZM7.30202 2.10975L7.30193 2.18491C7.30192 2.54799 7.20639 2.90468 7.02493 3.21912C6.46078 4.19672 5.21946 4.53933 4.23595 3.9963L4.19515 3.97307L2.94613 6.13735L3.01096 6.17492C3.31531 6.3507 3.57062 6.59967 3.75398 6.89891L3.78233 6.94658C4.35741 7.94303 4.02696 9.21395 3.04639 9.8056L3.0111 9.82644L2.94613 9.86397L4.25475 12.1317L4.27972 12.1178C4.5621 11.965 4.87646 11.8807 5.1974 11.8718L5.2541 11.871C6.35906 11.871 7.25963 12.7465 7.30048 13.842L7.30178 13.8917H9.91902L9.91894 13.8166C9.91893 13.465 10.0068 13.1193 10.1742 12.8108L10.2013 12.7624C10.7764 11.766 12.0418 11.4169 13.0442 11.9707L13.0799 11.9908L13.1448 12.0283L14.3939 9.86397L14.3883 9.86088C14.0897 9.6884 13.8392 9.44409 13.6593 9.15047L13.6315 9.1037C13.0674 8.12609 13.3915 6.8793 14.3533 6.29872L14.3884 6.27803L14.4533 6.24053L13.1448 3.97307L13.0798 4.01069C12.7755 4.18648 12.4323 4.28318 12.0816 4.2924L12.0261 4.29313C10.8754 4.2931 9.94014 3.3703 9.91929 2.22386L9.91894 2.18469L9.91902 2.10987L7.30202 2.10975ZM8.71223 4.72805C10.5189 4.72805 11.9835 6.1933 11.9835 8.00078C11.9835 9.80826 10.5189 11.2735 8.71223 11.2735C6.90556 11.2735 5.44097 9.80826 5.44097 8.00078C5.44097 6.1933 6.90556 4.72805 8.71223 4.72805ZM8.71223 6.03714C7.62823 6.03714 6.74947 6.91629 6.74947 8.00078C6.74947 9.08527 7.62823 9.96442 8.71223 9.96442C9.79623 9.96442 10.675 9.08527 10.675 8.00078C10.675 6.91629 9.79623 6.03714 8.71223 6.03714Z" fill="#56606D"/>
</svg>
