<svg width="20" height="20" viewBox="0 0 20 20" fill="none" xmlns="http://www.w3.org/2000/svg">
<path d="M10.3259 8.97508L10.345 8.99342L13.7273 12.3758C13.9842 12.6326 13.9842 13.0491 13.7273 13.3059C13.4767 13.5565 13.0742 13.5626 12.8162 13.3242L12.7972 13.3059L10.5156 11.0243V18.4553C10.5156 18.8185 10.2212 19.113 9.85793 19.113C9.50354 19.113 9.21462 18.8327 9.20074 18.4817L9.20021 18.4553V11.0681L6.96263 13.3059C6.71204 13.5565 6.30955 13.5626 6.05156 13.3242L6.03248 13.3059C5.7819 13.0553 5.77578 12.6528 6.01415 12.3948L6.03248 12.3758L9.41483 8.99342C9.66542 8.74283 10.0679 8.73672 10.3259 8.97508Z" fill="#0149FF"/>
<path d="M9.59239 15.9991L9.67232 16L16.52 16C18.4421 16 20 14.4408 20 12.5178C20 10.6188 18.4795 9.07069 16.5843 9.03614L16.5274 9.03559L15.8124 9.03567L15.7945 8.81148C15.5589 5.87966 13.1046 3.61194 10.1572 3.61194C7.84008 3.61194 5.76525 5.02367 4.9068 7.1636L4.88085 7.22953L4.81866 7.39045L4.30194 7.39037C1.92589 7.39037 0 9.31785 0 11.6952C0 14.046 1.88475 15.9614 4.23105 15.9994L4.29527 16L9.54038 15.9998L9.59239 15.9991ZM9.4971 14.3582H4.30193L4.25102 14.3578C2.80758 14.3343 1.64179 13.1496 1.64179 11.6952C1.64179 10.2243 2.83293 9.03216 4.30193 9.03216L5.94531 9.03219L6.41068 7.82539L6.4326 7.76973C7.03996 6.25576 8.51265 5.25373 10.1572 5.25373C12.2484 5.25373 13.9909 6.86374 14.158 8.94298L14.2973 10.6773L16.5199 10.6773L16.5619 10.6778C17.5547 10.6959 18.3582 11.514 18.3582 12.5178C18.3582 13.5344 17.5351 14.3582 16.52 14.3582L9.68142 14.3582L9.60902 14.3572L9.5763 14.3572L9.4971 14.3582Z" fill="#0149FF"/>
</svg>
